<mxfile host="app.diagrams.net" modified="2024-06-11T15:55:18.630Z" agent="Mozilla/5.0 (Windows NT 10.0; Win64; x64) AppleWebKit/537.36 (KHTML, like Gecko) Chrome/125.0.0.0 Safari/537.36 Edg/125.0.0.0" etag="PS0gllyDfW15ndKoNQ-k" version="24.5.3" type="device">
  <diagram id="3j9G0F825_cHGCq9AKto" name="Page-2">
    <mxGraphModel dx="2790" dy="-2344" grid="1" gridSize="10" guides="1" tooltips="1" connect="1" arrows="1" fold="1" page="1" pageScale="1" pageWidth="827" pageHeight="1169" math="0" shadow="0">
      <root>
        <mxCell id="0" />
        <mxCell id="1" parent="0" />
        <mxCell id="KhuRC_Y1lqTb-dmsCv6L-34" value="&lt;font style=&quot;font-size: 18px;&quot;&gt;&lt;b&gt;Customer Transactions&lt;/b&gt;&lt;/font&gt;" style="text;html=1;align=center;verticalAlign=middle;whiteSpace=wrap;rounded=0;" parent="1" vertex="1">
          <mxGeometry x="227.5" y="4210" width="230" height="30" as="geometry" />
        </mxCell>
        <mxCell id="KhuRC_Y1lqTb-dmsCv6L-35" value="" style="rounded=0;whiteSpace=wrap;html=1;" parent="1" vertex="1">
          <mxGeometry x="-300.07" y="4280" width="1250" height="860" as="geometry" />
        </mxCell>
        <mxCell id="KhuRC_Y1lqTb-dmsCv6L-36" value="" style="rounded=0;whiteSpace=wrap;html=1;fillColor=#f5f5f5;fontColor=#333333;strokeColor=#666666;rotation=-270;" parent="1" vertex="1">
          <mxGeometry x="-620" y="4604.6900000000005" width="857.5" height="213.13" as="geometry" />
        </mxCell>
        <mxCell id="KhuRC_Y1lqTb-dmsCv6L-37" value="&lt;font size=&quot;3&quot;&gt;&lt;b&gt;LOGO&lt;/b&gt;&lt;/font&gt;" style="rhombus;whiteSpace=wrap;html=1;fillColor=#dae8fc;strokeColor=#6c8ebf;" parent="1" vertex="1">
          <mxGeometry x="-289.07" y="4290" width="80" height="80" as="geometry" />
        </mxCell>
        <mxCell id="KhuRC_Y1lqTb-dmsCv6L-38" value="&lt;b&gt;Logout&lt;/b&gt;" style="rounded=0;whiteSpace=wrap;html=1;fillColor=#dae8fc;strokeColor=#6c8ebf;" parent="1" vertex="1">
          <mxGeometry x="779.9300000000001" y="4310" width="90" height="40" as="geometry" />
        </mxCell>
        <mxCell id="KhuRC_Y1lqTb-dmsCv6L-39" value="" style="rounded=0;whiteSpace=wrap;html=1;fillColor=#f5f5f5;fontColor=#f5f5f5;strokeColor=#666666;" parent="1" vertex="1">
          <mxGeometry x="-299.07" y="5040" width="1249" height="100" as="geometry" />
        </mxCell>
        <mxCell id="KhuRC_Y1lqTb-dmsCv6L-40" value="&lt;font style=&quot;font-size: 14px;&quot;&gt;Footer Information&lt;/font&gt;" style="text;html=1;align=center;verticalAlign=middle;whiteSpace=wrap;rounded=0;" parent="1" vertex="1">
          <mxGeometry x="253.93" y="5075" width="126" height="30" as="geometry" />
        </mxCell>
        <mxCell id="KhuRC_Y1lqTb-dmsCv6L-41" value="&lt;b&gt;&lt;font style=&quot;font-size: 18px;&quot;&gt;Welcome Message&lt;/font&gt;&lt;/b&gt;" style="text;html=1;align=center;verticalAlign=middle;whiteSpace=wrap;rounded=0;" parent="1" vertex="1">
          <mxGeometry x="-59.06999999999999" y="4300" width="230" height="30" as="geometry" />
        </mxCell>
        <mxCell id="KhuRC_Y1lqTb-dmsCv6L-42" value="Current user information" style="text;html=1;align=center;verticalAlign=middle;whiteSpace=wrap;rounded=0;" parent="1" vertex="1">
          <mxGeometry x="-39.06999999999999" y="4340" width="160" height="30" as="geometry" />
        </mxCell>
        <mxCell id="KhuRC_Y1lqTb-dmsCv6L-43" value="&lt;font style=&quot;font-size: 14px;&quot;&gt;Menu Options&lt;/font&gt;" style="text;html=1;align=center;verticalAlign=middle;whiteSpace=wrap;rounded=0;" parent="1" vertex="1">
          <mxGeometry x="-279.07" y="4450" width="110" height="30" as="geometry" />
        </mxCell>
        <mxCell id="KhuRC_Y1lqTb-dmsCv6L-44" value="&lt;font style=&quot;font-size: 14px;&quot;&gt;Dashboard&lt;/font&gt;" style="text;html=1;align=center;verticalAlign=middle;whiteSpace=wrap;rounded=0;" parent="1" vertex="1">
          <mxGeometry x="-294.07" y="4520" width="110" height="30" as="geometry" />
        </mxCell>
        <mxCell id="KhuRC_Y1lqTb-dmsCv6L-45" value="&lt;font style=&quot;font-size: 14px;&quot;&gt;Transactions&lt;/font&gt;" style="text;html=1;align=center;verticalAlign=middle;whiteSpace=wrap;rounded=0;" parent="1" vertex="1">
          <mxGeometry x="-289.07" y="4560" width="110" height="30" as="geometry" />
        </mxCell>
        <mxCell id="KhuRC_Y1lqTb-dmsCv6L-46" value="&lt;font style=&quot;font-size: 14px;&quot;&gt;Profile&lt;/font&gt;" style="text;html=1;align=center;verticalAlign=middle;whiteSpace=wrap;rounded=0;" parent="1" vertex="1">
          <mxGeometry x="-309.07" y="4620" width="110" height="30" as="geometry" />
        </mxCell>
        <mxCell id="KhuRC_Y1lqTb-dmsCv6L-47" style="edgeStyle=orthogonalEdgeStyle;rounded=0;orthogonalLoop=1;jettySize=auto;html=1;exitX=0.5;exitY=1;exitDx=0;exitDy=0;" parent="1" source="KhuRC_Y1lqTb-dmsCv6L-46" target="KhuRC_Y1lqTb-dmsCv6L-46" edge="1">
          <mxGeometry relative="1" as="geometry" />
        </mxCell>
        <mxCell id="KhuRC_Y1lqTb-dmsCv6L-48" value="" style="endArrow=none;html=1;rounded=0;" parent="1" edge="1">
          <mxGeometry width="50" height="50" relative="1" as="geometry">
            <mxPoint x="-159.07" y="4500" as="sourcePoint" />
            <mxPoint x="-279.07" y="4500" as="targetPoint" />
          </mxGeometry>
        </mxCell>
        <mxCell id="KhuRC_Y1lqTb-dmsCv6L-49" value="" style="rounded=0;whiteSpace=wrap;html=1;" parent="1" vertex="1">
          <mxGeometry x="-29.07" y="4470" width="520" height="540" as="geometry" />
        </mxCell>
        <mxCell id="KhuRC_Y1lqTb-dmsCv6L-50" value="&lt;span style=&quot;font-size: 14px;&quot;&gt;Transactions&lt;/span&gt;" style="text;html=1;align=center;verticalAlign=middle;whiteSpace=wrap;rounded=0;" parent="1" vertex="1">
          <mxGeometry x="131.93" y="4720" width="180" height="30" as="geometry" />
        </mxCell>
        <mxCell id="KhuRC_Y1lqTb-dmsCv6L-71" value="&lt;font style=&quot;font-size: 24px;&quot;&gt;Transactions History&lt;/font&gt;" style="text;html=1;align=center;verticalAlign=middle;whiteSpace=wrap;rounded=0;" parent="1" vertex="1">
          <mxGeometry x="270.93" y="4390" width="240" height="30" as="geometry" />
        </mxCell>
        <mxCell id="KhuRC_Y1lqTb-dmsCv6L-103" value="" style="rounded=0;whiteSpace=wrap;html=1;" parent="1" vertex="1">
          <mxGeometry x="535.9300000000001" y="4470" width="370" height="260" as="geometry" />
        </mxCell>
        <mxCell id="KhuRC_Y1lqTb-dmsCv6L-104" value="" style="endArrow=none;html=1;rounded=0;entryX=1;entryY=0;entryDx=0;entryDy=0;exitX=0;exitY=1;exitDx=0;exitDy=0;" parent="1" source="KhuRC_Y1lqTb-dmsCv6L-103" target="KhuRC_Y1lqTb-dmsCv6L-103" edge="1">
          <mxGeometry width="50" height="50" relative="1" as="geometry">
            <mxPoint x="355.93" y="4727.5" as="sourcePoint" />
            <mxPoint x="405.93" y="4677.5" as="targetPoint" />
          </mxGeometry>
        </mxCell>
        <mxCell id="KhuRC_Y1lqTb-dmsCv6L-105" value="" style="endArrow=none;html=1;rounded=0;entryX=1;entryY=1;entryDx=0;entryDy=0;exitX=0;exitY=0;exitDx=0;exitDy=0;" parent="1" source="KhuRC_Y1lqTb-dmsCv6L-103" target="KhuRC_Y1lqTb-dmsCv6L-103" edge="1">
          <mxGeometry width="50" height="50" relative="1" as="geometry">
            <mxPoint x="355.93" y="4727.5" as="sourcePoint" />
            <mxPoint x="405.93" y="4677.5" as="targetPoint" />
          </mxGeometry>
        </mxCell>
        <mxCell id="KhuRC_Y1lqTb-dmsCv6L-106" value="image" style="text;html=1;align=center;verticalAlign=middle;whiteSpace=wrap;rounded=0;" parent="1" vertex="1">
          <mxGeometry x="690.9300000000001" y="4537.5" width="60" height="30" as="geometry" />
        </mxCell>
        <mxCell id="KhuRC_Y1lqTb-dmsCv6L-107" value="" style="rounded=0;whiteSpace=wrap;html=1;" parent="1" vertex="1">
          <mxGeometry x="530.9300000000001" y="4777.5" width="380" height="230" as="geometry" />
        </mxCell>
        <mxCell id="KhuRC_Y1lqTb-dmsCv6L-108" value="&lt;span style=&quot;font-size: 14px;&quot;&gt;Balance information&lt;/span&gt;" style="text;html=1;align=center;verticalAlign=middle;whiteSpace=wrap;rounded=0;" parent="1" vertex="1">
          <mxGeometry x="635.9300000000001" y="4867.5" width="180" height="30" as="geometry" />
        </mxCell>
        <mxCell id="4bFOf3q3WvnAby6B3AYO-17" value="&lt;h1 style=&quot;margin-top: 0px;&quot;&gt;A&lt;/h1&gt;" style="text;html=1;whiteSpace=wrap;overflow=hidden;rounded=0;align=center;" parent="1" vertex="1">
          <mxGeometry x="500.92999999999995" y="4730" width="30" height="40" as="geometry" />
        </mxCell>
        <mxCell id="4bFOf3q3WvnAby6B3AYO-18" value="&lt;h1 style=&quot;margin-top: 0px;&quot;&gt;B&lt;/h1&gt;" style="text;html=1;whiteSpace=wrap;overflow=hidden;rounded=0;align=center;" parent="1" vertex="1">
          <mxGeometry x="-130" y="4295" width="30" height="40" as="geometry" />
        </mxCell>
        <mxCell id="4bFOf3q3WvnAby6B3AYO-20" value="&lt;h1 style=&quot;margin-top: 0px;&quot;&gt;D&lt;/h1&gt;" style="text;html=1;whiteSpace=wrap;overflow=hidden;rounded=0;align=center;" parent="1" vertex="1">
          <mxGeometry x="435.92999999999995" y="4480" width="30" height="40" as="geometry" />
        </mxCell>
        <mxCell id="4bFOf3q3WvnAby6B3AYO-21" value="&lt;h1 style=&quot;margin-top: 0px;&quot;&gt;E&lt;/h1&gt;" style="text;html=1;whiteSpace=wrap;overflow=hidden;rounded=0;align=center;" parent="1" vertex="1">
          <mxGeometry x="839.9300000000001" y="4480" width="30" height="40" as="geometry" />
        </mxCell>
        <mxCell id="4bFOf3q3WvnAby6B3AYO-22" value="&lt;h1 style=&quot;margin-top: 0px;&quot;&gt;F&lt;/h1&gt;" style="text;html=1;whiteSpace=wrap;overflow=hidden;rounded=0;align=center;" parent="1" vertex="1">
          <mxGeometry x="859.9300000000001" y="4790" width="30" height="40" as="geometry" />
        </mxCell>
        <mxCell id="4bFOf3q3WvnAby6B3AYO-24" value="&lt;h1 style=&quot;margin-top: 0px;&quot;&gt;H&lt;/h1&gt;" style="text;html=1;whiteSpace=wrap;overflow=hidden;rounded=0;align=center;" parent="1" vertex="1">
          <mxGeometry x="350.93000000000006" y="4290" width="30" height="40" as="geometry" />
        </mxCell>
        <mxCell id="4bFOf3q3WvnAby6B3AYO-29" value="&lt;h1 style=&quot;margin-top: 0px;&quot;&gt;C&lt;/h1&gt;" style="text;html=1;whiteSpace=wrap;overflow=hidden;rounded=0;align=center;" parent="1" vertex="1">
          <mxGeometry x="457.5" y="5050" width="30" height="40" as="geometry" />
        </mxCell>
      </root>
    </mxGraphModel>
  </diagram>
</mxfile>
